<?xml version="1.0" encoding="utf-8"?>
<!-- Generator: Adobe Illustrator 18.0.0, SVG Export Plug-In . SVG Version: 6.00 Build 0)  -->
<!DOCTYPE svg PUBLIC "-//W3C//DTD SVG 1.1//EN" "http://www.w3.org/Graphics/SVG/1.1/DTD/svg11.dtd">
<svg version="1.1" id="Layer_1" xmlns="http://www.w3.org/2000/svg" xmlns:xlink="http://www.w3.org/1999/xlink" x="0px" y="0px"
	 viewBox="0 0 200 54" enable-background="new 0 0 200 54" xml:space="preserve">
<g id="Layer_1_1_">
	<g>
		<g>
			<g>
				<path fill="#263745" d="M161.5,30.7l-3.3-4.7h-2.7v4.7h-0.6V20.3h3.2c1,0,1.9,0.1,2.6,0.4c0.8,0.4,1.3,1.2,1.3,2.5
					c0,1.7-1,2.7-3.1,2.8l3.4,4.8C162.4,30.7,161.5,30.7,161.5,30.7z M158.2,25.4c2.2,0,3.2-0.8,3.2-2.4c0-0.8-0.3-1.4-0.9-1.8
					c-0.6-0.4-1.5-0.4-2.4-0.4h-2.6v4.5L158.2,25.4L158.2,25.4z"/>
				<path fill="#263745" d="M164,30.7V20.3h5.9v0.6h-5.2v4.3h4.6v0.6h-4.6v4.5h5.6v0.6L164,30.7L164,30.7z"/>
				<path fill="#263745" d="M174.5,30.7v-9.8h-3.3v-0.6h7.2v0.6h-3.3v9.9L174.5,30.7L174.5,30.7z"/>
				<path fill="#263745" d="M185.9,30.7l-1.2-3.3h-4.9l-1.2,3.3h-0.7l4.2-10.5h0.6l4,10.5H185.9z M184.5,26.9c-0.8-2-1.5-4-2.2-6
					c-0.4,1-0.8,2.1-2.3,6H184.5z"/>
				<path fill="#263745" d="M189.1,30.7h-0.6V20.3h0.6V30.7z"/>
				<path fill="#263745" d="M192.2,30.7V20.3h0.6v9.8h5.2v0.6C198,30.7,192.2,30.7,192.2,30.7z"/>
			</g>
			<path fill="#263745" d="M61.1,21.5c0.6,0,2,0.1,2.3,1.3l0.1,0.3l1.7-0.5l-0.1-0.2c-0.2-0.8-0.6-1.3-1.2-1.8
				c-0.5-0.3-1.3-0.7-2.7-0.7c-0.5,0-2,0.1-2.9,0.9s-0.9,1.7-0.9,2.2c0,1.4,0.9,2.4,2.8,2.7l1.2,0.3c1.8,0.4,2,0.9,2,1.6
				c0,0.9-0.6,1.7-2.4,1.7c-1.7,0-2.5-1.1-2.6-1.8l-0.2-0.3l-1.7,0.6l0.1,0.2c0.6,1.3,1.7,2.8,4.4,2.8c3,0,4.1-1.9,4.1-3.2
				c0-1.6-1-2.7-3-3.1l-1-0.2c-1-0.2-2-0.5-2-1.4C59,22.1,59.8,21.5,61.1,21.5z M70.6,20c-1.5,0-2.4,0.7-2.8,1.2v-1h-1.7v13.9h1.7
				v-4.5c0.6,0.7,1.5,1.3,2.8,1.3c3.6,0,4.5-3.6,4.5-5.5C75.2,24.9,75.1,20,70.6,20z M70.5,29.3c-0.4,0-1-0.1-1.6-0.6
				c-0.7-0.6-1-1.4-1-2.8v-0.5c0-1.4,0.4-3.7,2.7-3.7c2.2,0,2.9,1.9,2.9,3.7C73.4,27.3,72.6,29.3,70.5,29.3z M80.4,20.1
				c-1,0-2,0.4-2.6,1.1v-1h-1.7v10.5h1.7V25c0-2.3,0.9-3.3,2.7-3.3c0.2,0,0.3,0,0.4,0l0.4,0.1v-1.6h-0.2
				C80.7,20.1,80.6,20.1,80.4,20.1z M82.2,30.7h1.7V20.3h-1.7V30.7z M90.8,20c-1.6,0-2.5,0.7-2.9,1.3v-1.1h-1.7v10.5h1.7v-6
				c0-2,1-3.1,2.8-3.1c0.5,0,1.5,0.1,1.9,1c0.2,0.6,0.2,1.3,0.2,2.7v5.5h1.7v-6c0-1.4,0-2.2-0.4-2.9C93.9,21.4,93.2,20,90.8,20z
				 M111.7,20c-1.3,0-2.3,0.6-2.8,1.3v-4.1h-1.7v13.4h1.7v-1.1c0.5,0.7,1.4,1.4,2.9,1.4c3.3,0,4.5-2.7,4.5-5.3
				C116.3,22.9,114.9,20,111.7,20z M111.6,29.4c-2.5,0-2.7-2.5-2.7-3.9c0-1.8,0.5-3.9,2.7-3.9c2.6,0,2.8,2.8,2.8,4.1
				C114.4,28.1,113.4,29.4,111.6,29.4z M121.8,20c-2.9,0-4.9,2.3-4.9,5.6c0,3.2,1.9,5.4,4.8,5.4c2.4,0,4.9-1.7,4.9-5.6
				C126.6,22.8,125.1,20,121.8,20z M121.8,29.4c-0.9,0-3-0.4-3-3.8c0-2.6,1.1-4.1,3-4.1c0.9,0,3,0.4,3,3.9
				C124.8,29,122.7,29.4,121.8,29.4z M136.1,27.7v-4.4c0-1.5-0.7-3.3-4-3.3c-2.4,0-4,1.3-4.3,3.5v0.2l1.9,0.3v-0.3
				c0-1.3,0.4-2.2,2.5-2.2c1.8,0,2.1,0.9,2.1,1.8v0.6l-1.5,0.3c-3,0.7-5.3,1.4-5.3,3.7c0,1.5,1,3,3.4,3c1.8,0,2.8-0.8,3.5-1.5
				c0.3,1.1,1.4,1.3,2.7,1.3h0.5v-1.5H137C136.1,29.3,136.1,29,136.1,27.7z M134.4,26c0,0.9-0.1,1.3-0.3,1.7c-0.5,1.1-1.9,1.7-3,1.7
				c-1.4,0-1.8-0.9-1.8-1.4c0-1.1,0.9-1.3,3.8-2.1c0.3-0.1,0.7-0.2,1-0.3l0.4-0.1L134.4,26L134.4,26z M143.7,21.7v-1.6h-0.2
				c-0.4,0-0.7,0-0.8,0c-1.1,0-2,0.4-2.6,1.1v-1h-1.8v10.5h1.7V25c0-2.3,0.9-3.3,2.7-3.3c0.3,0,0.4,0,0.7,0.1L143.7,21.7z
				 M150.6,17.3v3.9c-0.6-0.7-1.6-1.1-2.7-1.1c-2.7,0-4.6,2.3-4.6,5.5s1.8,5.5,4.5,5.5c1.2,0,2.3-0.5,2.8-1.3v1.1h1.7V17.3H150.6z
				 M150.6,25.7c0,2.3-1,3.7-2.7,3.7c-1.8,0-2.7-1.4-2.7-3.9c0-2.4,1.1-3.9,2.8-3.9c1.2,0,2.7,0.6,2.7,3.5
				C150.6,25.1,150.6,25.7,150.6,25.7z M83.1,16.7c-0.6,0-1,0.5-1,1c0,0.6,0.5,1,1,1s1-0.5,1-1C84.2,17.2,83.7,16.7,83.1,16.7z
				 M101.9,29.6c-0.5,0-1-0.1-1.4-0.1c-1.9-0.1-2.7-0.2-2.7-0.7c0-0.3,0.4-0.6,1.1-0.8c0.7,0.2,1.2,0.3,1.8,0.3
				c2.6,0,4.3-1.8,4.3-4.4c0-0.9-0.2-1.6-0.7-2.3c0.3-0.2,0.7-0.3,1.1-0.3h0.5v-1.5h-0.3c-0.9,0-1.6,0.1-2.4,0.7
				c-0.9-0.6-1.7-0.8-2.8-0.8c-2.6,0-4.5,1.8-4.5,4.3c0,1.2,0.5,2.3,1.3,3.1c-0.9,0.7-1.4,1.2-1.4,2c0,0.7,0.4,1.3,1.1,1.6
				c-1.1,0.7-1.6,1.4-1.6,2.4c0,1.9,1.9,3.1,5.1,3.1c3.5,0,5.4-1.2,5.4-3.4C106.1,30.9,104.6,29.8,101.9,29.6z M100.6,21.4
				c1.5,0,2.7,1.1,2.7,2.7s-1.1,2.7-2.7,2.7c-1.5,0-2.7-1.2-2.7-2.7C97.9,22.7,99.1,21.4,100.6,21.4z M100.8,34.7
				c-2.1,0-3.4-0.7-3.4-1.7c0-0.7,0.6-1.3,1.8-1.9c3.8,0,5.1,0.5,5.1,1.7C104.3,34,103,34.7,100.8,34.7z"/>
		</g>
		<g>
			<path fill="#D3D756" d="M19.4,18.6c-1,0-1.9-0.9-1.9-1.9c0-0.9,0.7-1.7,1.5-1.9l-3.8-0.4c-0.4,0.7-0.6,1.5-0.6,2.4
				c0,2.7,2.1,4.8,4.8,4.8h3l2.5-2.9h-5.5V18.6z"/>
			<path fill="#D3D756" d="M16.8,25.4c-0.8,0-1.5,0.7-1.5,1.5s0.6,1.3,1.3,1.5l2.5-2.9C19.2,25.4,16.8,25.4,16.8,25.4z"/>
			<path fill="#EA6953" d="M15.3,14.4l3.8,0.4c0.1,0,0.2,0,0.4,0H27l-1.2-2.9h-6.2C17.6,11.9,16.2,12.9,15.3,14.4z"/>
			<path fill="#63CCCA" d="M30.1,6.2C30.2,6.2,30.2,6.3,30.1,6.2C30.2,6.3,30.2,6.2,30.1,6.2z"/>
			<path fill="#63CCCA" d="M29.4,6.1c0.1,0,0.2,0,0.3,0.1C29.6,6.1,29.6,6.1,29.4,6.1z"/>
			<path fill="#63CCCA" d="M19.1,6L19.1,6L19.1,6z"/>
			<path fill="#DB85BB" d="M14.3,40.9c0,0.8,0.7,1.5,1.5,1.5s1.5-0.7,1.5-1.5v-0.3l-2.9-2.4L14.3,40.9L14.3,40.9z"/>
			<path fill="#FFFFFF" d="M26,28.2l0.3-2.9h-7.1l-2.5,2.9h0.1H26z"/>
			<path fill="#FFFFFF" d="M20,34h5.4l0.1-1.5l0.1-1.5h-5.7c-3.1,0-5.7,2.6-5.7,5.7V38l2.9,2.4v-3.7C17.1,35.3,18.4,34,20,34z"/>
			<polygon fill="#FFFFFF" points="27.2,18.6 25,18.6 22.6,21.6 26.8,21.6 			"/>
			<path fill="#DB85BB" d="M33,33.8c0.4-0.2,0.7-0.7,0.7-1.2c0-0.8-0.7-1.5-1.5-1.5h-6.5l-0.2,1.5L33,33.8z"/>
			<path fill="#DB85BB" d="M27,21.6L27,21.6h2.5c1,0,1.9,0.9,1.9,1.9s-0.9,1.9-1.9,1.9h-3.3l-0.3,2.9h3.6c2.7,0,4.8-2.1,4.8-4.8
				s-2.1-4.8-4.8-4.8h-2.4l-0.3,2.9H27L27,21.6z"/>
			<rect x="25.6" y="31.1" fill="#DB85BB" width="0" height="1.5"/>
			<rect x="26.9" y="18.6" fill="#DB85BB" width="0" height="2.9"/>
			<polygon fill="#DB85BB" points="26,28.2 26.4,25.4 26.4,25.4 			"/>
			<path fill="#089BDF" d="M31.1,14.8c0.8,0,1.5-0.7,1.5-1.5s-0.7-1.5-1.5-1.5h-5.4l1.2,2.9L31.1,14.8L31.1,14.8z"/>
			<path fill="#EA6953" d="M25.4,34h6.8c0.3,0,0.6-0.1,0.8-0.2l-7.5-1.2L25.4,34z"/>
			<polygon fill="#EA6953" points="25.4,34 25.5,32.6 25.5,32.6 			"/>
			<path fill="#EA6953" d="M41.3,14c0,0,0,0.1,0.1,0.1C41.3,14.2,41.3,14.2,41.3,14z"/>
			<path fill="#EA6953" d="M40.6,13.1c0,0.1,0.1,0.1,0.2,0.2C40.7,13.4,40.6,13.3,40.6,13.1z"/>
			<path fill="#EA6953" d="M40.3,12.8c0,0.1,0.1,0.1,0.1,0.2C40.4,12.9,40.3,12.9,40.3,12.8z"/>
			<path fill="#EA6953" d="M41,13.6c0,0,0.1,0.1,0.1,0.2C41.1,13.7,41,13.7,41,13.6z"/>
			<path fill="#EA6953" d="M37.8,10.3L37.8,10.3L37.8,10.3z"/>
			<path fill="#EA6953" d="M38.2,10.7L38.2,10.7C38.3,10.7,38.2,10.7,38.2,10.7z"/>
			<path fill="#EA6953" d="M38.8,11.4c0,0,0.1,0.1,0.2,0.2C39.1,11.5,38.9,11.4,38.8,11.4z"/>
			<path fill="#EA6953" d="M38.5,11l0.1,0.1C38.6,11.1,38.6,11,38.5,11z"/>
			<path fill="#EA6953" d="M39.9,12.4c0.1,0.1,0.1,0.1,0.2,0.2C40.1,12.6,39.9,12.5,39.9,12.4z"/>
			<path fill="#EA6953" d="M39.5,12c0.1,0.1,0.1,0.1,0.2,0.2C39.7,12.1,39.6,12.1,39.5,12z"/>
			<path fill="#EA6953" d="M39.2,11.7c0.1,0.1,0.2,0.1,0.2,0.2C39.4,11.8,39.3,11.7,39.2,11.7z"/>
			<path fill="#EA6953" d="M41.6,14.5C41.6,14.6,41.6,14.6,41.6,14.5C41.6,14.6,41.6,14.6,41.6,14.5z"/>
			<path fill="#174050" d="M30.3,6.3L30.3,6.3L30.3,6.3z"/>
			<path fill="#174050" d="M30.3,6.3L30.3,6.3C30.2,6.3,30.3,6.3,30.3,6.3L30.3,6.3z"/>
			<path fill="#174050" d="M29.4,6C29.4,6,29.4,6.1,29.4,6C29.4,6.1,29.4,6,29.4,6z"/>
			<path fill="#174050" d="M29.9,6.1c0.1,0.1,0.2,0.1,0.3,0.1C30.1,6.2,30,6.2,29.9,6.1z"/>
			<path fill="#174050" d="M41.1,13.8c0,0.1,0.1,0.1,0.2,0.2C41.2,13.9,41.2,13.9,41.1,13.8z"/>
			<path fill="#174050" d="M41.4,14.2c0.1,0.1,0.1,0.2,0.2,0.3C41.5,14.4,41.4,14.4,41.4,14.2z"/>
			<path fill="#174050" d="M39.1,11.6l0.1,0.1C39.2,11.6,39.1,11.6,39.1,11.6z"/>
			<path fill="#174050" d="M38.3,10.8c0.1,0.1,0.2,0.1,0.2,0.2C38.4,10.9,38.4,10.8,38.3,10.8z"/>
			<path fill="#174050" d="M38.6,11.1c0.1,0,0.1,0.1,0.2,0.2C38.8,11.2,38.7,11.2,38.6,11.1z"/>
			<path fill="#174050" d="M37.8,10.3c0.1,0.1,0.2,0.2,0.3,0.3C38,10.6,37.9,10.5,37.8,10.3z"/>
			<path fill="#174050" d="M40.7,13.5c0,0,0.1,0.1,0.1,0.2C40.8,13.6,40.8,13.5,40.7,13.5z"/>
			<path fill="#174050" d="M39.8,12.3l0.1,0.1C39.8,12.4,39.8,12.4,39.8,12.3z"/>
			<path fill="#174050" d="M40.4,13l0.1,0.1C40.5,13.1,40.5,13,40.4,13z"/>
			<path fill="#174050" d="M40.2,12.7l0.1,0.1C40.2,12.7,40.2,12.7,40.2,12.7z"/>
			<path fill="#174050" d="M39.4,11.9l0.1,0.1C39.5,12,39.5,11.9,39.4,11.9z"/>
			<polygon fill="#174050" points="6.5,38.7 6.5,38.7 10.7,35.3 			"/>
			<rect x="27.7" y="5.1" fill="#174050" width="0" height="6.7"/>
			<path fill="#0E3C20" d="M16.7,28.2c-0.8,0-1.3-0.7-1.3-1.3c0-0.8,0.7-1.5,1.5-1.5h2.4l3.3-3.8h-3c-2.7,0-4.8-2.1-4.8-4.8
				c0-0.9,0.2-1.7,0.6-2.4l-7.9-1c-2,2.5-3.4,5.4-4.2,8.5l7.4,13.2L16.7,28.2z"/>
			<path fill="#0E3C20" d="M17.5,16.7c0,1,0.9,1.9,1.9,1.9H25l2.4-2.8l-8.4-1C18.2,15.1,17.5,15.8,17.5,16.7z"/>
			<path fill="#0E3C20" d="M42.3,15.7l-7.6,2.8l8.9,16.7c1.1-2.6,1.8-5.5,1.8-8.5c0-0.9,0-1.8-0.1-2.7c-0.1-1.2-0.4-2.5-0.8-3.7
				C43.9,18.6,43.2,17.1,42.3,15.7z"/>
			<path fill="#1A1F22" d="M19.1,14.8l8.4,1L27,14.7h-7.5C19.3,14.8,19.2,14.8,19.1,14.8z"/>
			<path fill="#1A1F22" d="M19.4,11.9h6.2L25,10.6l0,0l0,0L19,6c-4.7,1.1-8.8,3.8-11.7,7.4l7.9,1C16.2,12.9,17.6,11.9,19.4,11.9z"/>
			<path fill="#0E2D30" d="M3.3,21.9C3,23.4,2.7,25,2.7,26.6c0,4.5,1.3,8.6,3.7,12.1l4.2-3.6L3.3,21.9z"/>
			<path fill="#0E2D30" d="M19.1,6l6.1,4.6l5.2-4.3l0,0h-0.1c-0.1-0.1-0.2-0.1-0.3-0.1c-0.1,0-0.2,0-0.3-0.1c0,0,0,0-0.1,0
				c-1.7-0.4-3.5-0.7-5.3-0.7C22.3,5.4,20.7,5.5,19.1,6z"/>
			<polygon fill="#174050" points="19.1,6 25.1,10.6 25.1,10.6 			"/>
			<path fill="#263745" d="M22.8,47.9l-14-6.5C12.3,45.2,17.3,47.6,22.8,47.9z"/>
			<path fill="#0E2D30" d="M23.2,47.9c0.2,0,0.6,0,0.8,0c4.7,0,9.1-1.6,12.6-4.2l-12.8,2.4L23.2,47.9z"/>
			<path fill="#01173A" d="M17.1,40.5v0.3c0,0.8-0.7,1.5-1.5,1.5c-0.8,0-1.5-0.7-1.5-1.5v-2.7l-3.6-2.9l-4,3.5
				c0.7,1,1.3,1.9,2.2,2.7l14.1,6.5c0.1,0,0.3,0,0.4,0l0.6-1.8L17.1,40.5z"/>
			<polygon fill="#174050" points="23.2,47.9 23.2,47.9 23.9,46.1 			"/>
			<polygon fill="#263745" points="26.8,21.6 22.6,21.6 19.2,25.4 26.4,25.4 			"/>
			<polygon fill="#263745" points="27.2,18.6 27.4,15.8 25,18.6 			"/>
			<path fill="#263745" d="M20,34c-1.6,0-2.8,1.2-2.8,2.8v3.7l6.8,5.6L25.4,34H20L20,34z"/>
			<path fill="#263745" d="M20,31.1h5.7l0.3-2.9h-9.2h-0.1l-6.1,7l3.6,2.9v-1.3C14.3,33.7,16.7,31.1,20,31.1z"/>
			<path fill="#01173A" d="M27.2,18.6h2.4c2.7,0,4.8,2.1,4.8,4.8s-2.1,4.8-4.8,4.8H26l-0.3,2.9h6.5c0.8,0,1.5,0.7,1.5,1.5
				c0,0.6-0.2,1-0.7,1.2l10.5,1.8c0-0.1,0.1-0.2,0.1-0.3l-8.9-16.8L27.5,16L27.2,18.6z"/>
			<path fill="#01173A" d="M29.5,25.4c1,0,1.9-0.9,1.9-1.9s-0.9-1.9-1.9-1.9H27l0,0h-0.2l-0.4,3.8H29.5z"/>
			<path fill="#174050" d="M43.7,35.3l-8.9-16.8L43.7,35.3z"/>
			<rect x="25.8" y="28.2" fill="#174050" width="0" height="2.9"/>
			<path fill="#174050" d="M27.2,18.6l0.3-2.7L27.2,18.6z"/>
			<polygon fill="#174050" points="26.8,21.6 26.4,25.4 26.4,25.4 			"/>
			<path fill="#263745" d="M30.3,6.3l-5.2,4.3l0.6,1.3h5.4c0.8,0,1.5,0.7,1.5,1.5s-0.7,1.5-1.5,1.5h-4.2l0.4,1.1l7.3,2.6l0.1-10.2
				C33.3,7.4,31.9,6.8,30.3,6.3z"/>
			<path fill="#1A1F22" d="M32.2,34h-6.8L24,46.1l12.7-2.2c2.9-2.1,5.3-5,6.7-8.3l-10.5-1.8C32.8,33.9,32.4,34,32.2,34z"/>
			<polygon fill="#174050" points="23.9,46.1 25.4,34 25.4,34 			"/>
			<path fill="#1A1F22" d="M34.7,18.4l7.6-2.8c-0.2-0.3-0.4-0.7-0.7-1l0,0c-0.1-0.1-0.1-0.2-0.2-0.3c0,0,0-0.1-0.1-0.1
				c0-0.1-0.1-0.1-0.2-0.2c0,0-0.1-0.1-0.1-0.2c0,0-0.1-0.1-0.1-0.2c0-0.1-0.1-0.1-0.2-0.2l-0.1-0.1c-0.1-0.2-0.2-0.2-0.2-0.3
				l-0.1-0.1c-0.1-0.1-0.1-0.1-0.2-0.2L40,12.6c-0.1-0.1-0.1-0.1-0.2-0.2L39.5,12c-0.1-0.1-0.1-0.1-0.2-0.2l-0.1-0.1
				c0,0-0.2-0.3-0.3-0.3s-0.1-0.1-0.2-0.2L38.5,11c-0.1-0.1-0.2-0.1-0.2-0.2c0,0,0,0-0.1-0.1s-0.2-0.2-0.3-0.3l0,0
				c-0.9-0.8-1.9-1.5-3-2.1L34.7,18.4z"/>
		</g>
	</g>
</g>
<g id="Layer_2">
</g>
</svg>
