<?xml version="1.0" encoding="utf-8"?>
<!-- Generator: Adobe Illustrator 19.2.0, SVG Export Plug-In . SVG Version: 6.00 Build 0)  -->
<svg version="1.1" id="Layer_1" xmlns="http://www.w3.org/2000/svg" xmlns:xlink="http://www.w3.org/1999/xlink" x="0px" y="0px"
	 viewBox="0 0 200 54" style="enable-background:new 0 0 200 54;" xml:space="preserve">
<style type="text/css">
	.st0{fill:#E6E6E6;}
	.st1{fill:#808080;}
	.st2{fill:#CCCCCC;}
	.st3{fill:#B3B3B3;}
	.st4{fill:#999999;}
	.st5{fill:#263745;}
	.st6{fill:#1A1A1A;}
	.st7{fill:#1A1F22;}
	.st8{fill:#0E2D30;}
	.st9{fill:#01173A;}
	.st10{fill:#DB85BB;}
	.st11{fill:#0E3C20;}
</style>
<g>
	<g>
		<g id="XMLID_1_">
			<g>
				<polygon class="st0" points="198,30.1 198,30.7 192.2,30.7 192.2,20.3 192.8,20.3 192.8,30.1 				"/>
				<rect x="188.5" y="20.3" class="st0" width="0.6" height="10.4"/>
				<path class="st0" d="M182.7,20.2l4,10.5h-0.8l-1.2-3.3h-4.9l-1.2,3.3h-0.7l4.2-10.5H182.7z M180,26.9h4.5c-0.8-2-1.5-4-2.2-6
					C181.9,21.9,181.5,23,180,26.9z"/>
				<polygon class="st0" points="178.4,20.3 178.4,20.9 175.1,20.9 175.1,30.8 174.5,30.7 174.5,20.9 171.2,20.9 171.2,20.3 				"/>
				<polygon class="st0" points="170.3,30.3 170.3,30.9 164,30.7 164,23.2 164,20.3 169.9,20.3 169.9,20.9 164.7,20.9 164.7,25.2 
					169.3,25.2 169.3,25.8 164.7,25.8 164.7,30.3 				"/>
				<path class="st0" d="M162.3,30.8C162.3,30.8,162.3,30.8,162.3,30.8L162.3,30.8z"/>
				<path class="st0" d="M162.2,30.7L162.2,30.7c0,0-0.2,0-0.3,0H162.2z"/>
				<path class="st0" d="M162.2,30.7h-0.3c-0.2,0-0.4,0-0.4,0l-3.3-4.7h-2.7v4.7h-0.6V20.3h3.2c1,0,1.9,0.1,2.6,0.4
					c0.8,0.4,1.3,1.2,1.3,2.5c0,1.7-1,2.7-3.1,2.8L162.2,30.7z M158.2,25.4c2.2,0,3.2-0.8,3.2-2.4c0-0.8-0.3-1.4-0.9-1.8
					c-0.6-0.4-1.5-0.4-2.4-0.4h-2.6v4.5L158.2,25.4z"/>
				<path class="st0" d="M152.3,17.3v13.6h-1.7v-1.1c-0.5,0.8-1.6,1.3-2.8,1.3c-2.7,0-4.5-2.3-4.5-5.5s1.9-5.5,4.6-5.5
					c1.1,0,2.1,0.4,2.7,1.1v-3.9H152.3z M150.6,25.7c0,0,0-0.6,0.1-0.6c0-2.9-1.5-3.5-2.7-3.5c-1.7,0-2.8,1.5-2.8,3.9
					c0,2.5,0.9,3.9,2.7,3.9C149.6,29.4,150.6,28,150.6,25.7z"/>
				<path class="st0" d="M143.7,20.1v1.6l-0.3,0.1c-0.3-0.1-0.4-0.1-0.7-0.1c-1.8,0-2.7,1-2.7,3.3v5.7h-1.7V20.2h1.8v1
					c0.6-0.7,1.5-1.1,2.6-1.1c0.1,0,0.4,0,0.8,0H143.7z"/>
				<path class="st0" d="M137.6,29.2v1.5h-0.5c-1.3,0-2.4-0.2-2.7-1.3c-0.7,0.7-1.7,1.5-3.5,1.5c-2.4,0-3.4-1.5-3.4-3
					c0-1.6,1.1-2.4,2.7-3c0.8-0.3,1.6-0.5,2.6-0.7l1.5-0.3v-0.6c0-0.9-0.3-1.8-2.1-1.8c-2.1,0-2.5,0.9-2.5,2.2V24l-1.9-0.3v-0.2
					c0.3-2.2,1.9-3.5,4.3-3.5c3.3,0,4,1.8,4,3.3v4.4c0,1.3,0,1.6,0.9,1.5H137.6z M134.4,26l0.1-0.5l-0.4,0.1c-0.3,0.1-0.7,0.2-1,0.3
					c-2.9,0.8-3.8,1-3.8,2.1c0,0.5,0.4,1.4,1.8,1.4c1.1,0,2.5-0.6,3-1.7C134.3,27.3,134.4,26.9,134.4,26z"/>
				<path class="st0" d="M121.8,20c3.3,0,4.8,2.8,4.8,5.4c0,3.9-2.5,5.6-4.9,5.6c-2.9,0-4.8-2.2-4.8-5.4
					C116.9,22.3,118.9,20,121.8,20z M121.8,29.4c0.9,0,3-0.4,3-4c0-3.5-2.1-3.9-3-3.9c-1.9,0-3,1.5-3,4.1
					C118.8,29,120.9,29.4,121.8,29.4z"/>
				<path class="st0" d="M116.3,25.6c0,2.6-1.2,5.3-4.5,5.3c-1.5,0-2.4-0.7-2.9-1.4v1.1h-1.7V17.2h1.7v4.1c0.5-0.7,1.5-1.3,2.8-1.3
					C114.9,20,116.3,22.9,116.3,25.6z M114.4,25.7c0-1.3-0.2-4.1-2.8-4.1c-2.2,0-2.7,2.1-2.7,3.9c0,1.4,0.2,3.9,2.7,3.9
					C113.4,29.4,114.4,28.1,114.4,25.7z"/>
				<path class="st0" d="M105.9,19.8v1.5h-0.5c-0.4,0-0.8,0.1-1.1,0.3c0.5,0.7,0.7,1.4,0.7,2.3c0,2.6-1.7,4.4-4.3,4.4
					c-0.6,0-1.1-0.1-1.8-0.3c-0.7,0.2-1.1,0.5-1.1,0.8c0,0.5,0.8,0.6,2.7,0.7c0.4,0,0.9,0.1,1.4,0.1c2.7,0.2,4.2,1.3,3.9,3.2
					c0,2.2-1.9,3.4-5.4,3.4c-3.2,0-5.1-1.2-5.1-3.1c0-1,0.5-1.7,1.6-2.4c-0.7-0.3-1.1-0.9-1.1-1.6c0-0.8,0.5-1.3,1.4-2
					c-0.8-0.8-1.3-1.9-1.3-3.1c0-2.5,1.9-4.3,4.5-4.3c1.1,0,1.9,0.2,2.8,0.8c0.8-0.6,1.5-0.7,2.4-0.7H105.9z M100.8,34.7
					c2.2,0,3.5-0.7,3.5-1.9c0-1.2-1.3-1.7-5.1-1.7c-1.2,0.6-1.8,1.2-1.8,1.9C97.4,34,98.7,34.7,100.8,34.7z M100.6,26.8
					c1.6,0,2.7-1.1,2.7-2.7s-1.2-2.7-2.7-2.7s-2.7,1.3-2.7,2.7C97.9,25.6,99.1,26.8,100.6,26.8z"/>
				<path class="st0" d="M94.5,29.1v1.7h-1.7v-5.5c0-1.4,0-2.1-0.2-2.7c-0.4-0.9-1.4-1-1.9-1c-1.8,0-2.8,1.1-2.8,3.1v6h-1.7V20.2
					h1.7v1.1c0.4-0.6,1.3-1.3,2.9-1.3c2.4,0,3.1,1.4,3.3,1.9c0.3,0.6,0.4,1.2,0.4,2.1c0,0.2,0,0.5,0,0.8V29.1z"/>
				<path class="st0" d="M83.1,16.7c0.6,0,1.1,0.5,1,1c0,0.5-0.5,1-1,1s-1-0.4-1-1C82.1,17.2,82.5,16.7,83.1,16.7z"/>
				<rect x="82.2" y="20.3" class="st0" width="1.7" height="10.4"/>
				<path class="st0" d="M81.3,20.2v1.6l-0.4-0.1c-0.1,0-0.2,0-0.4,0c-1.8,0-2.7,1-2.7,3.3v5.7h-1.7V20.2h1.7v1
					c0.6-0.7,1.6-1.1,2.6-1.1c0.2,0,0.3,0,0.7,0.1H81.3z"/>
				<path class="st0" d="M70.6,20c4.5,0,4.6,4.9,4.5,5.4c0,1.9-0.9,5.5-4.5,5.5c-1.3,0-2.2-0.6-2.8-1.3v4.5h-1.7v-6.5v-5v-2.4h1.7v1
					C68.2,20.7,69.1,20,70.6,20z M73.5,25.4c0-1.8-0.7-3.7-2.9-3.7c-2.3,0-2.7,2.3-2.7,3.7v0.5c0,1.4,0.3,2.2,1,2.8
					c0.6,0.5,1.2,0.6,1.6,0.6C72.6,29.3,73.4,27.3,73.5,25.4z"/>
				<path class="st0" d="M65.1,22.4l0.1,0.2l-1.7,0.5l-0.1-0.3c-0.3-1.2-1.7-1.3-2.3-1.3c-1.3,0-2.1,0.6-2,1.4c0,0.9,1,1.2,2,1.4
					l1,0.2c2,0.4,3,1.5,3,3.1c0,1.3-1.1,3.2-4.1,3.2c-2.7,0-3.8-1.5-4.4-2.8l-0.1-0.2l1.7-0.6l0.2,0.3c0.1,0.7,0.9,1.8,2.6,1.8
					c1.8,0,2.4-0.8,2.4-1.7c0-0.7-0.2-1.2-2-1.6l-1.2-0.3c-0.5-0.1-0.9-0.2-1.2-0.4c-1-0.5-1.6-1.3-1.6-2.4c0-0.5,0-1.4,0.9-2.2
					c0.9-0.8,2.4-0.9,2.9-0.9c1.4,0,2.2,0.4,2.7,0.7C64.5,21.1,64.9,21.6,65.1,22.4z"/>
				<path class="st1" d="M43.6,35.2C43.6,35.2,43.6,35.2,43.6,35.2l-8-15l-0.9-1.7l7.6-2.8c0.9,1.4,1.6,2.9,2.2,4.6
					c0.4,1.2,0.7,2.5,0.8,3.7c0.1,0.9,0.1,1.8,0.1,2.7C45.4,29.7,44.7,32.6,43.6,35.2z"/>
				<path class="st2" d="M35.6,20.2l8,15.1c0,0.1-0.1,0.2-0.1,0.3L33,33.8c0.5-0.2,0.7-0.5,0.7-1c0-0.1,0-0.1,0-0.2
					c0-0.8-0.7-1.5-1.5-1.5h-6.4v-1l0.2-1.8h3.5c1.2,0,2.3-0.4,3.2-1.2c0.2-0.2,0.4-0.4,0.6-0.6c0.8-0.8,1.2-1.9,1.2-3.2
					c0-2.7-2.1-4.8-4.8-4.8h-2.4l0.3-2.5l7.1,2.5v-0.1l0.1,0L35.6,20.2z"/>
				<path class="st0" d="M33,33.8l10.4,1.8c-1.4,3.3-3.8,6.2-6.7,8.3L36.2,44c0.1-0.1,0.3-0.2,0.4-0.3L24,46.1L25.4,34h6.8
					c0,0,0.1,0,0.2,0C32.6,34,32.8,33.9,33,33.8z"/>
				<path class="st0" d="M42.3,15.6l-7.6,2.8l0.2-10.1c1.1,0.6,2,1.3,2.9,2c0.1,0.2,0.2,0.3,0.3,0.3c0,0,0.1,0.1,0.1,0.1
					c0.1,0.1,0.1,0.1,0.1,0.1c0,0.1,0.1,0.1,0.2,0.2l0.1,0.1l0.1,0.1c0.1,0.1,0.1,0.2,0.2,0.2c0.1,0,0.2,0.1,0.2,0.2c0,0,0,0,0,0
					l0.1,0.1c0,0,0,0,0,0l0.1,0.1c0,0.1,0.1,0.1,0.1,0.1c0,0,0,0.1,0.1,0.1l0.3,0.4c0.1,0.1,0.1,0.1,0.2,0.2l0.1,0.1
					c0.1,0.1,0.1,0.1,0.2,0.2l0.1,0.1c0,0.1,0.1,0.1,0.2,0.3l0.1,0.1c0.1,0.1,0.2,0.1,0.2,0.2c0,0.1,0.1,0.2,0.1,0.2
					c0,0.1,0.1,0.2,0.1,0.2c0.1,0.1,0.2,0.1,0.2,0.2c0.1,0,0.1,0.1,0.1,0.1c0,0,0,0,0,0l0.1,0.1c0,0.1,0.1,0.1,0.1,0.2
					C41.9,14.9,42.1,15.3,42.3,15.6z M40.8,13.7c0-0.1,0-0.2-0.1-0.2C40.7,13.5,40.8,13.6,40.8,13.7z M39,11.6
					c0.1-0.1-0.1-0.2-0.2-0.2C38.8,11.4,38.9,11.5,39,11.6z"/>
				<path class="st0" d="M41.6,14.5c0-0.1-0.1-0.1-0.1-0.1l-0.1-0.1c0,0,0-0.1,0-0.1C41.5,14.3,41.5,14.4,41.6,14.5z"/>
				<path class="st0" d="M41.4,14.1c-0.1,0.1-0.1,0.1-0.1-0.1C41.3,14,41.3,14.1,41.4,14.1z"/>
				<path class="st0" d="M41.1,13.8c0.1,0.1,0.1,0.1,0.1,0.1C41.2,13.9,41.1,13.9,41.1,13.8z"/>
				<path class="st0" d="M41.1,13.7c0,0-0.1-0.1-0.1-0.1C41,13.6,41.1,13.7,41.1,13.7z"/>
				<path class="st0" d="M40.8,13.3c-0.1,0.1-0.2,0-0.2-0.2C40.6,13.2,40.7,13.2,40.8,13.3z"/>
				<path class="st0" d="M40.7,13.5c0.1,0,0.1,0.1,0.1,0.2C40.8,13.6,40.7,13.5,40.7,13.5z"/>
				<path class="st0" d="M40.5,13.1L40.4,13C40.5,13,40.5,13.1,40.5,13.1z"/>
				<path class="st0" d="M39.9,12.4c0.1,0.1,0.1,0.1,0.2,0.2C40,12.6,39.9,12.5,39.9,12.4z"/>
				<path class="st0" d="M39.8,12.3l0.1,0.1C39.8,12.4,39.8,12.4,39.8,12.3z"/>
				<path class="st0" d="M39.7,12.2c-0.1-0.1-0.1-0.1-0.1-0.1C39.6,12.1,39.7,12.1,39.7,12.2z"/>
				<path class="st0" d="M39.5,12c0-0.1-0.1-0.1-0.1-0.1C39.5,11.9,39.5,12,39.5,12z"/>
				<path class="st0" d="M39.2,11.7c0.1,0,0.2,0.1,0.2,0.1C39.3,11.8,39.3,11.8,39.2,11.7z"/>
				<path class="st0" d="M39.2,11.7L39.2,11.7C39.1,11.6,39.1,11.6,39.2,11.7C39.2,11.6,39.2,11.7,39.2,11.7z"/>
				<path class="st0" d="M39.2,11.7C39.2,11.7,39.2,11.6,39.2,11.7C39.2,11.6,39.2,11.6,39.2,11.7z"/>
				<path class="st0" d="M38.8,11.4c0.1,0,0.3,0.1,0.2,0.2C38.9,11.5,38.8,11.4,38.8,11.4z"/>
				<path class="st0" d="M38.8,11.3c0,0-0.1-0.1-0.1-0.1C38.8,11.2,38.8,11.2,38.8,11.3z"/>
				<path class="st0" d="M38.7,11.2c0,0-0.1,0-0.1-0.1C38.7,11.1,38.7,11.1,38.7,11.2z"/>
				<path class="st0" d="M38.6,11.1L38.5,11C38.6,11,38.6,11.1,38.6,11.1z"/>
				<path class="st0" d="M38.5,11c0,0-0.1-0.1-0.1-0.1C38.5,10.9,38.5,10.9,38.5,11z"/>
				<path class="st0" d="M38.4,10.9c0,0-0.1-0.1-0.1-0.1C38.4,10.8,38.4,10.8,38.4,10.9z"/>
				<path class="st0" d="M37.9,10.4c0.1,0.1,0.1,0.1,0.2,0.2C38,10.6,37.9,10.5,37.9,10.4C37.8,10.4,37.9,10.4,37.9,10.4z"/>
				<path class="st0" d="M36.6,43.7c-0.1,0.1-0.3,0.2-0.4,0.3L24,46.1v0L36.6,43.7z"/>
				<path class="st3" d="M24,46.1L36.2,44c-3.4,2.4-7.7,3.9-12.2,3.9c-0.2,0-0.6,0-0.8,0l0.7-1.8v0L24,46.1L24,46.1z"/>
				<path class="st4" d="M27.5,16.1l-0.1,0l0-0.2l-0.2,0l0,0l0.3,0l-0.4-0.9h4c0.8,0,1.5-0.7,1.5-1.5c0,0,0,0,0,0c0,0,0,0,0-0.1
					c0-0.8-0.7-1.5-1.5-1.5h-3.4V8.5l2.7-2.2c1.6,0.5,2.9,1.1,4.3,2.1l-0.1,10.1L27.5,16.1L27.5,16.1L27.5,16.1z"/>
				<polygon class="st5" points="34.6,18.5 34.6,18.6 27.5,16.1 27.5,16 				"/>
				<path class="st6" d="M25.6,31.9l0.1-0.8h0.1h6.4c0.8,0,1.5,0.7,1.5,1.5c0,0.1,0,0.1,0,0.2c-0.1,0.4-0.3,0.8-0.7,1l-7.5-1.2
					L25.6,31.9z"/>
				<path class="st6" d="M26.9,20.9l0.3-2.1h2.3c2.7,0,4.8,2.1,4.8,4.8c0,1.2-0.4,2.2-1.1,3.1c-0.2,0.2-0.4,0.4-0.6,0.6
					c-0.8,0.7-1.9,1.1-3.1,1.1H26l0.4-2.8h3.1c1,0,1.9-0.9,1.9-1.9s-0.9-1.9-1.9-1.9H27h-0.2v0L26.9,20.9z"/>
				<path class="st6" d="M33,33.8C33,33.8,33,33.8,33,33.8L33,33.8c-0.2,0.1-0.4,0.2-0.6,0.2c-0.1,0-0.1,0-0.2,0h-6.8l0.1-1.4
					L33,33.8z"/>
				<path class="st7" d="M32.9,33.8L32.9,33.8c-0.1,0.1-0.3,0.2-0.5,0.2C32.6,34,32.8,33.9,32.9,33.8z"/>
				<path class="st5" d="M32.6,13.3C32.6,13.3,32.6,13.3,32.6,13.3c0-0.7-0.7-1.4-1.5-1.4h-5.3h-0.1l0-0.1h2h3.4
					C31.9,11.8,32.6,12.5,32.6,13.3z"/>
				<path class="st6" d="M32.6,13.4C32.6,13.4,32.6,13.4,32.6,13.4c0,0.8-0.7,1.5-1.5,1.5h-4L27,14.7l4.1,0.1
					C31.9,14.8,32.6,14.1,32.6,13.4z"/>
				<path class="st6" d="M31.1,11.9c0.8,0,1.5,0.7,1.5,1.5c0,0.8-0.7,1.4-1.5,1.4L27,14.7h0l-1.2-2.8H31.1z"/>
				<path class="st2" d="M31.4,23.5c0,1-0.9,1.9-1.9,1.9h-3.1l0.4-3.8H27h2.5C30.5,21.6,31.4,22.5,31.4,23.5z"/>
				<path class="st8" d="M30.4,6.3L30.4,6.3c0,0-0.1,0-0.1,0H30.4z"/>
				<path class="st5" d="M30.4,6.3l-2.7,2.2V8.4L30.4,6.3C30.3,6.3,30.4,6.3,30.4,6.3z"/>
				<path class="st3" d="M30.3,6.3l-2.6,2.1V5.7c0.6,0.1,1.3,0.2,1.9,0.4c0.1,0,0.1,0,0.1,0c0.1,0.1,0.2,0.1,0.3,0.1
					c0,0,0.1,0,0.1,0c0,0,0.1,0,0.1,0c0,0,0,0,0,0C30.2,6.2,30.2,6.2,30.3,6.3z M29.6,6.1c0.1,0,0.1,0,0.1,0.1
					C29.6,6.1,29.6,6.1,29.6,6.1z"/>
				<path class="st8" d="M30.2,6.2C30.2,6.2,30.2,6.2,30.2,6.2C30.2,6.2,30.1,6.2,30.2,6.2C30.1,6.2,30.1,6.2,30.2,6.2
					C30.1,6.2,30.2,6.2,30.2,6.2z"/>
				<path class="st9" d="M29.6,28.2c1.2,0,2.2-0.4,3.1-1.1c-0.8,0.8-1.9,1.2-3.2,1.2H26l0-0.1H29.6z"/>
				<path class="st8" d="M29.7,6.2c-0.1,0-0.1-0.1-0.1-0.1C29.6,6.1,29.6,6.1,29.7,6.2z"/>
				<polygon class="st4" points="27.7,8.5 27.7,11.8 25.7,11.8 25.7,11.9 25.7,11.9 25.1,10.6 25.1,10.6 25.2,10.6 				"/>
				<polygon class="st5" points="27.7,8.4 27.7,8.5 25.2,10.6 25.1,10.6 				"/>
				<path class="st3" d="M27.7,5.7v2.7l-2.6,2.1l-6-4.6c1.6-0.5,3.2-0.6,5.2-0.6C25.4,5.4,26.6,5.5,27.7,5.7z"/>
				<polygon class="st4" points="27.1,14.9 27.5,15.8 27.2,15.8 26.9,14.9 				"/>
				<polygon class="st5" points="27.4,15.8 27.4,16 27.3,16 27.3,15.9 				"/>
				<polygon class="st5" points="27.4,15.8 27.3,15.9 27.2,15.8 				"/>
				<polygon class="st4" points="27.4,16 27.2,18.6 26.9,18.6 25,18.6 27.3,15.9 27.3,16 				"/>
				<path class="st1" d="M27.2,15.8l0.1,0.2L25,18.6h-5.6c-1,0-1.9-0.9-1.9-1.9c0-0.2,0-0.4,0.1-0.6c0.2-0.6,0.8-1,1.4-1.3
					L27.2,15.8z"/>
				<path class="st0" d="M26.9,14.9l0.3,0.9l-8.1-1c0.1,0,0.2,0,0.4,0H27l0-0.1h0l0.1,0.2H26.9z"/>
				<polygon class="st6" points="27.2,18.6 27.2,18.7 27.1,18.7 26.9,20.6 26.9,18.6 				"/>
				<polygon class="st6" points="27.2,18.7 26.9,20.9 26.9,20.6 27.1,18.7 				"/>
				<path class="st6" d="M27,14.7l0,0.1h-7.5c-0.2,0-0.3,0-0.4,0c0.1,0,0.2,0,0.4-0.1H27L27,14.7z"/>
				<polygon class="st6" points="25.8,11.9 27,14.7 26.9,14.7 25.7,11.9 				"/>
				<polygon class="st10" points="26.9,20.6 26.9,20.9 26.8,21.6 				"/>
				<polygon class="st6" points="26.9,18.6 26.9,20.6 26.8,21.6 26.8,21.6 22.6,21.6 25,18.6 				"/>
				<path class="st6" d="M25.7,11.9l1.2,2.8h-7.4c-0.2,0.1-0.3,0.1-0.4,0.1l-3.7-0.4v0l-0.1,0c0.8-1.4,2.1-2.4,3.9-2.5
					c0.1,0,0.2,0,0.4,0h6H25.7L25.7,11.9z"/>
				<polygon class="st4" points="26.8,21.6 26.4,25.4 26.3,25.4 26.3,25.3 19.4,25.3 22.5,21.7 22.6,21.6 				"/>
				<polygon class="st6" points="26.4,25.4 26,28.2 26.3,25.4 				"/>
				<polygon class="st5" points="26.3,25.3 26.3,25.4 26.2,25.4 19.3,25.4 19.4,25.3 				"/>
				<polygon class="st6" points="26.3,25.4 26,28.2 25.9,28.2 26.2,25.4 				"/>
				<path class="st6" d="M26.2,25.4l-0.3,2.8h-0.1h-9h0l2.3-2.7c0,0,0,0,0,0l0.1-0.1h0.1h0.1H26.2z"/>
				<polygon class="st5" points="26,28.2 26,28.3 25.9,28.3 25.9,28.2 				"/>
				<polygon class="st5" points="26,28.3 25.8,30.1 25.8,28.2 25.9,28.2 25.9,28.3 				"/>
				<polygon class="st9" points="25.8,30.1 25.8,31.1 25.7,31.1 				"/>
				<path class="st4" d="M25.8,28.2v1.9l-0.1,1h-0.1h0l0-0.1h-5.7c-3.1,0-5.7,2.6-5.7,5.7v0.1V38v0.1l-3.6-2.9l0.1-0.1l0,0l5.8-6.7
					c0,0,0,0,0.1,0l0.2-0.2h0H25.8z"/>
				<polygon class="st6" points="25.7,31.1 25.6,31.9 25.6,31.1 				"/>
				<polygon class="st6" points="25.6,31.1 25.6,31.9 25.5,32.6 25.4,34 25.5,32.5 25.6,31.1 				"/>
				<path class="st0" d="M25,10.6l0.6,1.3h-6h-0.2c-0.1,0-0.1,0-0.2,0c-1.7,0.1-3,1-4,2.5l-7.7-1c0,0,0,0,0,0l-0.2,0
					c2.9-3.6,7-6.3,11.7-7.4L25,10.6z"/>
				<path class="st5" d="M25.6,31l0,0.1H20c-3.3,0-5.7,2.6-5.8,5.7v-0.1c0-3.1,2.6-5.7,5.7-5.7H25.6z"/>
				<path class="st6" d="M25.6,31.1l-0.1,1.4L25.4,34H20c-0.1,0-0.2,0-0.3,0c-0.2,0-0.4,0.1-0.6,0.1c-0.3,0.1-0.5,0.2-0.8,0.3
					c-0.8,0.5-1.3,1.3-1.3,2.2v3.7L14.2,38v-1.2c0.1-3.1,2.5-5.7,5.8-5.7H25.6z"/>
				<polygon class="st5" points="25.4,34 24,46.1 24,46.1 23.9,46 				"/>
				<path class="st4" d="M25.4,34l-1.5,12l-6.7-5.5v-3.7c0-1,0.5-1.8,1.2-2.3c0.2-0.1,0.5-0.3,0.8-0.3c0.2-0.1,0.4-0.1,0.6-0.1
					c0.1,0,0.2,0,0.3,0H25.4z"/>
				<polygon class="st6" points="25,18.6 22.6,21.6 22.4,21.6 24.9,18.7 19.4,18.7 19.4,18.6 				"/>
				<path class="st6" d="M24.9,18.7l-2.5,2.9h-2.8c-2.7,0-4.8-2.1-4.8-4.8c0-0.9,0.2-1.7,0.6-2.4l3.6,0.4c-0.6,0.1-1.2,0.6-1.4,1.3
					c-0.1,0.2-0.1,0.4-0.1,0.6c0,1,0.9,1.9,1.9,1.9v0.1H24.9z"/>
				<polygon class="st5" points="24,46.1 24,46.1 24,46.1 				"/>
				<polygon class="st8" points="23.9,46.1 23.9,46.1 23.2,47.9 23.8,46.1 				"/>
				<path class="st2" d="M23.8,46.1l-0.6,1.8c-0.1,0-0.3,0-0.4,0l-0.9-0.4L8.8,41.4c0,0,0.1,0,0.1,0.1l-0.2-0.1
					c-0.9-0.8-1.5-1.7-2.2-2.7l4.2-3.4l3.4,2.8v2.6v0.1c0,0.8,0.7,1.5,1.5,1.5c0.8,0,1.5-0.7,1.5-1.5v-0.1v-0.2L23.8,46.1z"/>
				<path class="st3" d="M21.9,47.5l0.9,0.4c-5.5-0.3-10.4-2.7-13.9-6.4L21.9,47.5z"/>
				<path class="st1" d="M22.6,21.6l-0.1,0.1l-3.2,3.6h-0.1l-0.1,0.1h-2.2h0c-0.1,0-0.1,0-0.1,0c-0.8,0-1.5,0.7-1.5,1.5
					c0,0.8,0.6,1.3,1.2,1.5l-5.9,6.7L3.5,22.3l-0.2-0.4c0.8-3.1,2.2-6,4.2-8.5l7.7,1c-0.4,0.7-0.6,1.5-0.6,2.4
					c0,2.7,2.1,4.8,4.8,4.8h0.2h2.8H22.6z"/>
				<polygon class="st5" points="22.5,21.7 19.4,25.3 19.3,25.3 				"/>
				<path class="st9" d="M21.9,47.5l-13-6c0,0-0.1,0-0.1-0.1L21.9,47.5z"/>
				<path class="st1" d="M19.6,21.6h-0.2c-2.7,0-4.8-2.1-4.8-4.8c0-0.9,0.2-1.7,0.6-2.4l0.2,0c-0.4,0.7-0.6,1.5-0.6,2.4
					C14.8,19.5,16.9,21.6,19.6,21.6z"/>
				<path class="st5" d="M19.7,34c-0.2,0-0.4,0.1-0.6,0.1C19.3,34.1,19.5,34,19.7,34z"/>
				<polygon class="st5" points="19.4,25.3 19.3,25.4 19.2,25.4 19.3,25.3 				"/>
				<polygon class="st11" points="19.3,25.3 19.2,25.4 19.1,25.4 19.2,25.3 				"/>
				<path class="st6" d="M19.1,25.5C19.1,25.5,19.1,25.5,19.1,25.5l-2.3,2.7h-0.1L19.1,25.5z"/>
				<path class="st6" d="M19.1,25.5l-2.4,2.7c-0.8,0-1.3-0.7-1.3-1.3c0-0.8,0.7-1.5,1.5-1.5h0C17.3,25.4,18.8,25.4,19.1,25.5z"/>
				<path class="st6" d="M17.1,40.5v0.2c0,0.8-0.7,1.5-1.5,1.5c-0.8,0-1.5-0.7-1.5-1.5l0.1-2.6V38L17.1,40.5L17.1,40.5z"/>
				<path class="st11" d="M16.8,25.4C16.8,25.4,16.8,25.4,16.8,25.4c-0.7,0-1.4,0.7-1.4,1.5c0,0.6,0.5,1.3,1.3,1.3l-0.2,0.2
					c-0.7-0.2-1.2-0.7-1.2-1.5C15.3,26.1,16,25.4,16.8,25.4z"/>
				<path class="st5" d="M16.8,28.2l-0.2,0.2c0,0,0,0-0.1,0L16.8,28.2L16.8,28.2z"/>
				<polygon class="st5" points="16.5,28.4 10.7,35.1 10.7,35.1 				"/>
				<path class="st11" d="M15.4,14.4L15.4,14.4L15.4,14.4C15.3,14.4,15.3,14.4,15.4,14.4L15.4,14.4z"/>
				<path class="st11" d="M15.4,14.4L15.4,14.4l-0.2,0c0,0,0,0,0,0L15.4,14.4C15.3,14.4,15.3,14.4,15.4,14.4L15.4,14.4z"/>
				<path class="st7" d="M15.2,14.4C15.2,14.4,15.2,14.4,15.2,14.4l-7.7-1c0,0,0,0,0,0L15.2,14.4z"/>
				<polygon class="st3" points="10.5,35.2 10.7,35.3 6.5,38.7 				"/>
				<path class="st3" d="M3.5,22.3l7.1,12.8l-4.2,3.6C4,35.2,2.7,31.1,2.7,26.6c0-1.6,0.3-3.2,0.6-4.7L3.5,22.3z"/>
			</g>
			<g>
			</g>
		</g>
	</g>
</g>
<g id="Layer_2">
</g>
</svg>
