<?xml version="1.0" encoding="utf-8"?>
<!-- Generator: Adobe Illustrator 19.2.0, SVG Export Plug-In . SVG Version: 6.00 Build 0)  -->
<svg version="1.1" id="Layer_1" xmlns="http://www.w3.org/2000/svg" xmlns:xlink="http://www.w3.org/1999/xlink" x="0px" y="0px"
	 viewBox="0 0 235.7 60" style="enable-background:new 0 0 235.7 60;" xml:space="preserve">
<style type="text/css">
	.st0{fill:#E0E0E0;}
	.st1{fill:#101214;}
</style>
<g>
	<g>
		<g>
			<path class="st0" d="M192.1,34.9l-3.8-5.5h-3.2v5.5h-0.7v-12h3.7c1.2,0,2.2,0.1,2.9,0.4c0.8,0.4,1.5,1.4,1.5,2.8
				c0,1.9-1.2,3.1-3.5,3.3l3.9,5.5H192.1z M188.2,28.8c2.5,0,3.7-0.9,3.7-2.7c0-0.9-0.3-1.6-1.1-2.1c-0.7-0.4-1.7-0.4-2.7-0.4h-3
				v5.2H188.2z"/>
			<path class="st0" d="M194.9,34.9v-12h6.7v0.6h-6v4.8h5.3V29h-5.3v5.2h6.4v0.6H194.9z"/>
			<path class="st0" d="M206.9,34.9V23.6h-3.8v-0.6h8.3v0.6h-3.8v11.3H206.9z"/>
			<path class="st0" d="M219.8,34.9l-1.4-3.8h-5.6l-1.4,3.8h-0.8l4.7-12h0.7l4.6,12H219.8z M218.2,30.5c-0.9-2.3-1.7-4.6-2.5-6.8
				c-0.4,1.2-0.9,2.4-2.6,6.8H218.2z"/>
			<path class="st0" d="M223.4,34.9h-0.7v-12h0.7V34.9z"/>
			<path class="st0" d="M227,34.9v-12h0.7v11.3h5.9v0.6H227z"/>
		</g>
		<path class="st0" d="M77.3,24.4c0.7,0,2.3,0.1,2.6,1.5l0.1,0.3l1.9-0.5l-0.1-0.3c-0.2-0.8-0.7-1.5-1.4-2c-0.5-0.4-1.5-0.8-3-0.8
			c-0.5,0-2.3,0.1-3.4,1c-1,0.8-1.1,1.9-1.1,2.5c0,1.6,1.1,2.7,3.2,3.1l1.4,0.3c2,0.4,2.3,1.1,2.3,1.8c0,0.9-0.7,2-2.7,2
			c-2,0-2.8-1.3-3-2L74.1,31l-2,0.7l0.1,0.3c0.6,1.5,2,3.2,4.9,3.2c3.4,0,4.6-2.2,4.6-3.7c0-1.9-1.2-3.2-3.4-3.6l-1.2-0.2
			c-1.1-0.2-2.2-0.5-2.2-1.6C74.9,25,75.7,24.4,77.3,24.4z M88.2,22.7c-1.7,0-2.7,0.7-3.2,1.4v-1.2h-2v16h2v-5.1
			c0.6,0.8,1.7,1.5,3.2,1.5c4.1,0,5.2-4.1,5.2-6.2C93.4,28.3,93.3,22.7,88.2,22.7z M88,33.3c-0.5,0-1.2-0.1-1.9-0.6
			C85.4,32,85,31,85,29.3v-0.6c0-1.6,0.4-4.2,3-4.2c2.5,0,3.4,2.2,3.4,4.2C91.4,30.9,90.5,33.3,88,33.3z M99.3,22.7
			c-1.2,0-2.2,0.5-2.9,1.3v-1.1h-2v12h2v-6.5c0-2.6,1-3.8,3-3.8c0.2,0,0.3,0,0.5,0l0.5,0.1v-1.8l-0.2,0
			C99.7,22.7,99.5,22.7,99.3,22.7z M101.4,34.9h2v-12h-2V34.9z M111.3,22.7c-1.8,0-2.8,0.8-3.4,1.5v-1.3h-2v12h2v-6.8
			c0-2.2,1.2-3.6,3.2-3.6c0.5,0,1.7,0.1,2.2,1.2c0.2,0.6,0.2,1.5,0.2,3v6.2h2v-6.8c0-1.6,0-2.5-0.4-3.3
			C114.8,24.3,113.9,22.7,111.3,22.7z M135.2,22.7c-1.5,0-2.6,0.7-3.3,1.5v-4.7h-1.9v15.4h1.9v-1.3c0.6,0.8,1.6,1.6,3.4,1.6
			c3.7,0,5.1-3.1,5.1-6.1C140.3,25.9,138.7,22.7,135.2,22.7z M135.1,33.3c-2.8,0-3.2-2.8-3.2-4.5c0-2,0.5-4.4,3.1-4.4
			c2.9,0,3.3,3.2,3.3,4.6C138.2,31.9,137.1,33.3,135.1,33.3z M146.6,22.6c-3.3,0-5.6,2.6-5.6,6.4c0,3.7,2.2,6.2,5.5,6.2
			c2.7,0,5.6-2,5.6-6.3C152.1,25.7,150.4,22.6,146.6,22.6z M146.6,33.4c-1,0-3.4-0.4-3.4-4.4c0-3,1.3-4.7,3.5-4.7
			c1,0,3.5,0.4,3.5,4.5C150.1,33,147.6,33.4,146.6,33.4z M162.9,31.4v-5c0-1.7-0.8-3.7-4.5-3.7c-2.8,0-4.5,1.5-4.8,4l0,0.3l2.2,0.4
			v-0.3c0-1.5,0.5-2.5,2.9-2.5c2,0,2.4,1.1,2.4,2.1v0.7l-1.7,0.4c-3.4,0.8-6,1.6-6,4.2c0,1.7,1.2,3.4,3.9,3.4c2,0,3.3-0.9,4-1.7
			c0.4,1.3,1.6,1.5,3,1.5h0.6v-1.7h-0.5C163,33.2,162.9,32.9,162.9,31.4z M161,29.4c0,1.1-0.1,1.5-0.3,1.9c-0.6,1.2-2.2,2-3.5,2
			c-1.6,0-2.1-1.1-2.1-1.6c0-1.2,1-1.6,4.3-2.4c0.4-0.1,0.8-0.2,1.2-0.3l0.4-0.1V29.4z M171.6,24.7v-1.8l-0.2,0
			c-0.4-0.1-0.7-0.1-0.9-0.1c-1.2,0-2.2,0.5-2.9,1.3v-1.1h-2v12h2v-6.5c0-2.6,1-3.8,3-3.8c0.3,0,0.5,0,0.8,0.1L171.6,24.7z
			 M179.4,19.5V24c-0.7-0.8-1.8-1.3-3.1-1.3c-3.1,0-5.3,2.6-5.3,6.2c0,3.7,2.1,6.3,5.1,6.3c1.4,0,2.6-0.6,3.3-1.5v1.3h2V19.5H179.4z
			 M179.5,29.1c0,2.6-1.1,4.2-3.1,4.2c-2,0-3.2-1.6-3.2-4.4c0-2.7,1.3-4.4,3.3-4.4c1.4,0,3,0.7,3,4V29.1z M102.4,18.9
			c-0.7,0-1.2,0.5-1.2,1.2c0,0.7,0.5,1.2,1.2,1.2c0.7,0,1.2-0.5,1.2-1.2C103.6,19.4,103.1,18.9,102.4,18.9z M123.9,33.6
			c-0.6,0-1.1-0.1-1.6-0.1c-2.2-0.1-3.1-0.2-3.1-0.8c0-0.3,0.5-0.7,1.2-0.9c0.7,0.2,1.4,0.3,2,0.3c2.9,0,4.9-2,4.9-5
			c0-0.9-0.2-1.8-0.7-2.6c0.4-0.2,0.8-0.3,1.3-0.3h0.6v-1.7h-0.3c-1,0-1.9,0.1-2.7,0.8c-0.9-0.6-2-0.9-3.2-0.9
			c-2.9,0-5.1,2.1-5.1,4.8c0,1.4,0.5,2.6,1.5,3.5c-1.1,0.7-1.6,1.4-1.6,2.2c0,0.8,0.5,1.5,1.3,1.8c-1.3,0.8-1.9,1.6-1.9,2.7
			c0,2.2,2.2,3.5,5.8,3.5c4,0,6.1-1.4,6.1-3.9C128.7,35.1,127,33.8,123.9,33.6z M122.4,24.2c1.8,0,3,1.3,3,3.1c0,1.8-1.3,3.1-3,3.1
			c-1.7,0-3-1.4-3-3.1C119.4,25.6,120.7,24.2,122.4,24.2z M122.6,39.4c-2.4,0-3.9-0.7-3.9-1.9c0-0.8,0.7-1.5,2.1-2.1
			c4.3,0,5.9,0.5,5.9,1.9C126.7,38.6,125.2,39.4,122.6,39.4z"/>
	</g>
</g>
<g>
	<g id="XMLID_1_">
		<g>
			<path class="st0" d="M30.6,0.6c16.3,0,29.5,13.2,29.5,29.5S46.9,59.5,30.6,59.5S1.1,46.3,1.1,30S14.3,0.6,30.6,0.6z M44.8,25.2
				c0-3.4-3-6.3-6.7-6.3h-3.4H24.3c-1.5,0-2.6-1.1-2.6-2.6s1.1-2.6,2.6-2.6h16c1.1,0,1.9-0.7,1.9-1.9s-0.8-1.9-1.9-1.9h-16
				c-3.7,0-6.7,3-6.7,6.7c0,3.7,3,6.7,6.7,6.7h3.4h10.4c1.5,0,2.6,1.1,2.6,2.6s-1.1,2.6-2.6,2.6H20.5c-1.1-0.4-1.9,0.4-1.9,1.5
				c0,1.1,0.7,1.9,1.9,1.9h17.5C41.8,31.9,44.8,28.9,44.8,25.2z M43.7,38.2c0-1.1-0.8-1.9-1.9-1.9H25c-4.1,0-7.8,3.4-7.8,7.8v5.6
				c0,1.1,0.8,1.9,1.9,1.9c1.1,0,1.9-0.8,1.9-1.9v-5.6c0-2.2,1.9-4.1,4.1-4.1h16.8C42.9,40.1,43.7,39.3,43.7,38.2z"/>
			<path class="st1" d="M38.1,18.8c3.7,0,6.7,3,6.7,6.3c0,3.7-3,6.7-6.7,6.7H20.5c-1.1,0-1.9-0.7-1.9-1.9c0-1.1,0.7-1.9,1.9-1.5
				h17.5c1.5,0,2.6-1.1,2.6-2.6s-1.1-2.6-2.6-2.6H27.6h-3.4c-3.7,0-6.7-3-6.7-6.7c0-3.7,3-6.7,6.7-6.7h16c1.1,0,1.9,0.8,1.9,1.9
				s-0.8,1.9-1.9,1.9h-16c-1.5,0-2.6,1.1-2.6,2.6s1.1,2.6,2.6,2.6h10.4H38.1z"/>
			<path class="st1" d="M41.8,36.4c1.1,0,1.9,0.7,1.9,1.9s-0.8,1.9-1.9,1.9H25c-2.2,0-4.1,1.9-4.1,4.1v5.6c0,1.1-0.7,1.9-1.9,1.9
				c-1.1,0-1.9-0.8-1.9-1.9v-5.6c0-4.5,3.7-7.8,7.8-7.8H41.8z"/>
		</g>
		<g>
		</g>
	</g>
</g>
</svg>
